<svg width="250" height="100" viewBox="0 0 250 100" fill="none" xmlns="http://www.w3.org/2000/svg">
<path d="M114.9 21.6C115.6 21.8 115.8 21.9 116 22C122.5 24.4 124.9 30.1 124.6 36.6C124.1 46.7 116.7 56.2 107 59.1C103 60.3 98.8 60.5 94.7 59.6C86.6 57.7 84 52.2 84.1 45.6C84.3 35.5 90.4 26 100.2 22.5C102.6 21.7 105.2 21.2 107.8 21.2C109 21.2 110.3 21.2 111.5 21.1C113.1 20.7 114.6 20.3 116.2 19.8C132 14.7 148 10.7 164.4 8.29997C175.3 6.69997 186.2 5.69997 197.2 6.79997C202.7 7.29997 208.1 8.19997 213 10.8C216.4 12.6 219.1 15.1 219.3 19.1C219.4 21.3 218.8 23.7 218 25.9C217.2 28 215.3 31 213.4 32.5C213.3 32.6 213.3 32.5 213.2 32.4C213.3 32.2 213.8 31.7 214.3 31C214.9 30.2 215.2 29.4 215.4 29C217.1 24.7 216.5 19.6 211.3 16.2C206.9 13.3 201.8 12.1 196.7 11.4C185 9.69996 173.2 10.3 161.5 11.7C146.5 13.4 131.9 16.7 117.5 20.9C116.9 20.8 115.8 21.3 114.9 21.6ZM115.1 37.6C115.1 31.9 111 28.4 105.4 29.4C98.7 30.5 93.9 36.5 93.8 43.7C93.8 49.6 97.9 53.1 103.8 51.9C110.3 50.7 115.1 44.6 115.1 37.6Z" fill="#20A8D8"/>
<path d="M165.5 31.6C162.9 32.9 160.3 34.1 157.9 35.2C157.7 35 157.5 35 157.5 34.9C155.5 30.2 152.5 28.4 147.5 28.9C136.5 30 133.7 41.2 136.5 47.7C138.2 51.5 141.5 53.1 145.6 52C148.9 51.1 151.4 49.2 153.9 47C154.3 46.6 154.7 46.3 155.3 45.8C157.5 47.2 159.6 48.5 162 50C157.4 55.2 152.2 58.9 145.4 59.9C142.9 60.2 140.3 60.4 137.9 60C131.5 59 127.5 54.3 126.5 47.9C124.9 36.9 131.8 23.1 147.6 20.7C154.8 19.6 161.8 23.3 164.9 29.8C165.1 30.3 165.3 30.9 165.5 31.6Z" fill="#20A8D8"/>
<path d="M205.6 51.9C199.2 51.9 194 46.9 194 40.6C193.9 34.2 199 29.1 205.4 29C212 29 217.1 34 217.1 40.4C217.1 46.8 212 51.9 205.6 51.9ZM208.2 49.7C209.5 44.7 211 39.3 212.6 33.5C206.8 35 201.4 36.4 195.5 38C200 42.1 204.1 45.8 208.2 49.7Z" fill="#20A8D8"/>
<path d="M72.4 55.8C71.6 53.3 71.4 52.6001 70 48.2001C67.8 51.3001 65.8 53.9001 64 56.7001C63.2 58.0001 63.4 57.6001 62.9 58.4001C59.8 58.3001 54.7 58.3 51.2 58.3C55 53.6 59.2 48.5001 63 43.9001C62 44.4001 61.8 44.5001 61.5 44.7001C55.9 48.5001 50.7 52.7 46.8 58.3C44.9 61.1 43.5 64.1 44.2 67.6C44.7 70.5 46.6 72.5 49 74.1C53.2 76.9 57.9 78.1001 62.8 78.9001C73 80.5001 83.3 80.3001 93.6 79.3001C120.5 76.8001 146.3 69.8 171.3 59.6C171.8 59.4 172.2 59.2 172.6 59C172.7 59 173 58.8 173.4 58.5C172 58.5 170.3 58.5 168.8 58.5C170.8 48.8 172.8 39.3 174.9 29.6C172.6 29.6 170.3 29.6 167.8 29.6C168.5 26.4 169.1 23.4 169.7 20.4C177.4 20.4 185 20.4 192.8 20.4C192.2 23.4 191.7 26.3001 191.1 29.2001C188.9 29.2001 185.6 29.1001 183.6 29.2001C183.5 29.6001 183.5 29.7001 183.4 30.2001C181.7 38.5001 180.1 46.8 178.5 55.1C178.4 55.4 178.4 55.9 178.3 56.5C183 54.1 191.9 48.9 196.4 46.6C196.5 46.7 196.7 47 196.8 47C196.2 47.4 191.3 50.2 190.7 50.6C172.9 61.6 153.8 70.0001 134 76.9001C119.6 81.9001 104.9 86.2001 89.9 88.9001C81.3 90.5001 72.7 91.6 64 92.3C57.3 92.8 50.5 92.6 43.7 92.3C38.6 92 33.6 90.9 29.1 88.3C23.2 85 21.5 79.8 24.1 73.6C26.3 68.6 29.9 64.6 33.8 61C43 52.4 53.6 45.9 64.7 40C65.7 39.4 65.8 39.4 66.5 39C66.3 38.4 66.1 37.8 65.8 37.1C63.7 32.3 61.8 27.3 59.8 22.4C59.6 21.9 59.3 21.1 59 20.3C62.7 20.3 66.6 20.3 70.1 20.3C70.2 20.6 70.5 21.5 70.7 22C71.6 24.7 72.5 27.4 73.5 30.5C75.7 27.6 78.9 23.1 80.9 20.4C81.4 20.4 81.6 20.4 83.2 20.4C86.4 20.4 89.3 20.4 92.7 20.4C90.9 22.6 89.2 24.6 87.6 26.6C84.3 30.5001 81.1 34.5001 77.7 38.4001C77.4 38.8001 77.1 39.1 76.9 39.3C77 39.6 77.2 40.0001 77.5 40.9001C79.5 46.0001 81.5 51.2 83.5 56.3C83.7 56.8 83.9 57.3001 84.2 58.2001C81.3 58.2001 74 58 73.1 58L72.4 55.8Z" fill="#20A8D8"/>
</svg>
